<svg class="background-svg background-svg--green" width="306" height="308" viewBox="0 0 306 308" fill="none" xmlns="http://www.w3.org/2000/svg">
  <path d="M75.6344 133.015C73.7487 122.509 61.3566 116.582 50.6706 117.839C36.303 119.635 24.4497 131.309 19.2414 144.868C14.0331 158.428 14.4821 173.514 16.8169 187.881C19.1516 202.249 23.2823 216.258 25.2579 230.625M25.2579 230.625C25.7966 223.531 33.4295 217.874 39.8949 215.09C51.9278 209.343 64.6791 205.212 76.3528 198.747C88.0265 192.371 98.892 183.212 103.831 170.82C108.77 158.428 106.255 142.534 95.5695 134.631C92.5164 132.386 88.8347 130.86 84.9734 130.86C76.5324 130.95 70.3364 138.403 65.4873 145.317C49.0543 168.934 30.9151 202.339 25.2579 230.625Z" stroke="#194235" stroke-width="2" stroke-miterlimit="10"></path>
  <path d="M94.1328 133.643C99.1281 135.214 99.4309 141.187 103.472 140.289C108.411 139.301 108.86 132.656 109.488 127.717C110.835 116.941 118.737 107.243 129.064 103.831C139.391 100.418 151.514 103.382 159.057 111.104C162.2 114.337 164.534 118.198 167.228 121.88C172.167 128.525 178.363 134.182 185.367 138.582C189.318 141.097 194.078 143.701 194.976 148.281C186.625 143.791 176.208 140.917 166.779 140.199C161.751 139.75 156.632 139.929 151.693 138.762C136.877 135.17 128.027 120.369 113.12 117.046" stroke="#194235" stroke-width="2" stroke-miterlimit="10"></path>
  <path d="M128.256 93.7732C132.656 87.667 132.386 78.777 129.333 71.8625C117.57 80.0341 104.639 89.8221 102.843 104.01C102.574 105.986 102.753 108.32 104.37 109.488C106.345 110.835 108.949 109.578 111.015 108.32C117.48 104.28 123.856 99.9693 128.256 93.7732Z" stroke="#194235" stroke-width="2" stroke-miterlimit="10"></path>
  <path d="M113.798 189.408C114.657 170.796 105.996 162.518 106.266 150.844C106.625 137.824 112.017 129.392 105.84 113.484C104.762 110.251 102.753 109.757 102.304 106.435" stroke="#194235" stroke-width="2" stroke-miterlimit="10"></path>
  <path d="M101.192 103.378C91.5832 97.4516 82.1045 92.4675 71.2389 89.3246C60.7326 86.2714 47.0784 83.4466 39.5354 75.5444C29.7474 65.3074 30.4658 49.3234 31.723 35.2252C32.7108 24.1801 33.7883 13.0451 34.7761 2C55.25 11.339 74.6463 23.1025 92.5161 36.8415C99.3407 42.1396 106.076 47.8867 110.386 55.3399C114.696 62.7931 116.133 72.4913 112.182 80.1241C108.59 86.9487 101.047 91.9774 100.778 99.6102C100.508 105.627 104.998 110.745 107.063 116.492C111.014 127.448 105.627 139.57 106.525 151.154C107.063 158.158 109.847 164.714 111.553 171.538C116.941 193.269 111.194 216.078 110.925 238.527C110.835 251.009 112.361 263.491 112.81 275.973C114.247 317.998 102.573 360.922 113.349 401.6" stroke="#194235" stroke-width="2" stroke-miterlimit="10"></path>
  <path d="M90.2715 276.871C105.896 276.422 110.925 281.81 112.721 289.802C130.052 271.932 148.011 270.136 171 260.528" stroke="#194235" stroke-width="2" stroke-miterlimit="10"></path>
  <path d="M90.2713 276.871C55.9685 278.757 23.7311 298.872 2.08984 325.542" stroke="#194235" stroke-width="2" stroke-miterlimit="10"></path>
  <path d="M67.9116 275.434C66.7442 270.136 64.4993 266.275 61.6257 261.605C58.842 257.026 54.0827 253.254 48.6051 253.075C41.8702 252.895 36.3028 258.103 32.0823 263.312C17.6248 281.361 9.63281 303.721 2 325.541C7.11847 323.117 13.0451 323.296 18.7922 323.117C31.6333 322.578 44.2948 319.166 55.6991 313.329C58.6624 311.802 61.5359 310.096 63.6911 307.582C66.834 303.9 68.0014 298.871 68.4504 294.022C69.1688 287.916 68.9891 281.63 67.9116 275.434Z" stroke="#194235" stroke-width="2" stroke-miterlimit="10"></path>
  <path d="M172.257 266.095C170.959 263.556 171.36 262.054 171.27 260.528C175.311 254.781 178.812 252.446 185.727 251.458C192.641 250.47 199.645 251.548 206.47 253.254C211.768 254.511 216.976 256.217 221.736 258.911C236.911 267.622 244.095 285.402 250.112 301.925C252.087 307.133 253.973 312.431 254.871 317.909C255.14 319.525 255.051 321.68 253.434 322.309C252.716 322.578 251.997 322.398 251.369 322.309C243.107 320.782 234.756 319.256 226.495 317.729C223.083 317.011 219.58 316.382 216.527 314.676C211.678 311.982 208.625 306.774 204.494 303.002C198.927 297.794 191.204 295.1 185.906 289.622C182.674 286.3 180.518 282.169 178.453 278.128C176.388 274.087 174.322 270.136 172.257 266.095Z" stroke="#194235" stroke-width="2" stroke-miterlimit="10"></path>
  <path d="M113.284 205.548C114.272 198.724 120.982 195.155 127.627 193.359C134.272 191.473 141.815 190.126 146.126 184.738M146.126 184.738C147.203 183.391 148.101 181.775 149.448 180.698C154.746 176.387 162.02 182.044 167.857 185.636C173.334 188.959 176.926 189.587 183.302 190.485M146.126 184.738C145.048 186.085 145.228 189.228 145.497 192.371C146.664 204.404 155.285 214.551 165.252 221.466C175.22 228.38 186.714 232.69 197.4 238.348C207.278 243.646 216.078 248.495 224.429 255.948M183.302 190.485C183.661 185.277 192.102 180.967 197.4 181.146M183.302 190.485C194.527 193.898 202.608 206.38 207.368 217.155C213.025 230.086 218.772 243.017 224.429 255.948M224.429 255.948C232.78 248.944 236.103 237.27 234.936 226.494C233.768 215.719 228.56 205.661 222.094 196.951C217.156 190.216 211.049 183.751 203.057 181.595C195.065 179.44 185.188 182.404 183.212 190.485" stroke="#194235" stroke-width="2" stroke-miterlimit="10"></path>
  <path d="M113.529 181.147C112.9 170.64 112.451 159.326 118.198 150.526C119.904 147.922 132.297 131.758 134.901 130.142" stroke="#194235" stroke-width="2" stroke-miterlimit="10"></path>
  <path d="M161.571 114.157C177.465 102.394 197.849 94.0427 217.066 89.8222C221.466 88.8344 226.046 88.1161 230.446 88.6548C235.295 89.1936 239.874 91.259 244.095 93.7733C260.708 103.292 273.279 118.737 282.349 135.619C291.418 152.501 297.345 170.82 303.182 189.049C294.921 181.506 285.941 173.693 274.896 171.718C270.136 170.91 265.197 171.179 260.348 170.371C246.25 168.036 235.744 156.452 226.495 145.587C219.311 137.146 212.127 128.794 204.853 120.353C200.274 115.055 195.514 109.578 189.049 106.884C181.147 103.741 167.587 107.961 161.571 114.157Z" stroke="#194235" stroke-width="2" stroke-miterlimit="10"></path>
</svg>