<svg width="24" height="24" viewBox="0 0 24 24" fill="none" xmlns="http://www.w3.org/2000/svg">
<path d="M21.884 16.2377C21.3426 15.9722 18.6819 14.6903 18.1853 14.5134C17.6894 14.3364 17.328 14.2479 16.9673 14.7788C16.6066 15.3097 15.5694 16.5031 15.2535 16.857C14.9376 17.211 14.6217 17.2549 14.0811 16.9894C13.5397 16.724 11.7955 16.1648 9.72818 14.3583C8.11916 12.9525 7.03274 11.2169 6.71687 10.6867C6.40099 10.1558 6.68289 9.86916 6.95395 9.60513C7.19755 9.36729 7.49536 8.98576 7.76569 8.67643C8.03603 8.3671 8.12639 8.14554 8.30709 7.79233C8.4878 7.4384 8.39745 7.12907 8.26228 6.86363C8.12711 6.59819 7.04431 3.98905 6.59326 2.92799C6.15378 1.89453 5.70779 2.03468 5.37529 2.0184C5.06014 2.00283 4.69872 2 4.33803 2C3.97734 2 3.39112 2.13237 2.89454 2.66325C2.39868 3.19414 1 4.47606 1 7.08519C1 9.69432 2.93935 12.215 3.21042 12.5682C3.48075 12.9221 7.02696 18.2756 12.4569 20.5718C13.7486 21.1183 14.7562 21.4439 15.5426 21.6881C16.8394 22.0916 18.019 22.035 18.9522 21.8983C19.9924 21.7462 22.1544 20.6164 22.6054 19.3784C23.0564 18.1404 23.0564 17.0786 22.9213 16.8577C22.7861 16.6362 22.4254 16.5031 21.884 16.2377Z" fill="#5C5C5C"/>
</svg>
